<svg width="1280" height="529" viewBox="0 0 1280 529" fill="none" xmlns="http://www.w3.org/2000/svg">
<g filter="url(#filter0_d)">
<path d="M816.5 -33.5L1352.5 -54.5C1352.5 -54.5 1352.5 364.96 1364.54 486.738C1375.44 490.721 1380.18 498.947 1375 514.5C1370.77 527.204 1367.33 514.971 1364.54 486.738C1328.12 473.436 1222.98 507.477 1189.5 474C1146 430.5 1087 305 1009.5 278C932 251 771.5 136 753.5 74.5C735.5 13 735.5 -33.5 735.5 -33.5H816.5Z" fill="#313336"/>
<path d="M816.5 -33.5L1352.5 -54.5C1352.5 -54.5 1352.5 364.96 1364.54 486.738C1375.44 490.721 1380.18 498.947 1375 514.5C1370.77 527.204 1367.33 514.971 1364.54 486.738C1328.12 473.436 1222.98 507.477 1189.5 474C1146 430.5 1087 305 1009.5 278C932 251 771.5 136 753.5 74.5C735.5 13 735.5 -33.5 735.5 -33.5H816.5Z" stroke="#313336"/>
</g>
<g filter="url(#filter1_d)">
<path d="M1125.42 -17H-50.5V465C-50.5 490.479 388.5 477 508 477C627.5 477 700.48 482.948 777.5 420C854.52 357.052 920.533 390.276 962.653 294.243C982.875 248.136 1002.07 173.033 1070.48 122.385C1156.86 58.4414 1125.42 -17 1125.42 -17Z" fill="#FE6003"/>
<path d="M1125.42 -17H-50.5V465C-50.5 490.479 388.5 477 508 477C627.5 477 700.48 482.948 777.5 420C854.52 357.052 920.533 390.276 962.653 294.243C982.875 248.136 1002.07 173.033 1070.48 122.385C1156.86 58.4414 1125.42 -17 1125.42 -17Z" stroke="#FE6003"/>
</g>
<defs>
<filter id="filter0_d" x="731" y="-55.02" width="650.603" height="583.034" filterUnits="userSpaceOnUse" color-interpolation-filters="sRGB">
<feFlood flood-opacity="0" result="BackgroundImageFix"/>
<feColorMatrix in="SourceAlpha" type="matrix" values="0 0 0 0 0 0 0 0 0 0 0 0 0 0 0 0 0 0 127 0"/>
<feOffset dy="4"/>
<feGaussianBlur stdDeviation="2"/>
<feColorMatrix type="matrix" values="0 0 0 0 0 0 0 0 0 0 0 0 0 0 0 0 0 0 0.25 0"/>
<feBlend mode="normal" in2="BackgroundImageFix" result="effect1_dropShadow"/>
<feBlend mode="normal" in="SourceGraphic" in2="effect1_dropShadow" result="shape"/>
</filter>
<filter id="filter1_d" x="-55" y="-17.5" width="1190.5" height="506.563" filterUnits="userSpaceOnUse" color-interpolation-filters="sRGB">
<feFlood flood-opacity="0" result="BackgroundImageFix"/>
<feColorMatrix in="SourceAlpha" type="matrix" values="0 0 0 0 0 0 0 0 0 0 0 0 0 0 0 0 0 0 127 0"/>
<feOffset dy="4"/>
<feGaussianBlur stdDeviation="2"/>
<feColorMatrix type="matrix" values="0 0 0 0 0 0 0 0 0 0 0 0 0 0 0 0 0 0 0.25 0"/>
<feBlend mode="normal" in2="BackgroundImageFix" result="effect1_dropShadow"/>
<feBlend mode="normal" in="SourceGraphic" in2="effect1_dropShadow" result="shape"/>
</filter>
</defs>
</svg>
